<?xml version="1.0" encoding="utf-8"?>
<!-- Generator: Adobe Illustrator 22.1.0, SVG Export Plug-In . SVG Version: 6.00 Build 0)  -->
<svg version="1.1" id="Layer_1" xmlns="http://www.w3.org/2000/svg" xmlns:xlink="http://www.w3.org/1999/xlink" x="0px" y="0px"
	 viewBox="0 0 200 100" style="enable-background:new 0 0 200 100;" xml:space="preserve">
<style type="text/css">
	.st0{fill:#806D41;}
</style>
<g>
	<path class="st0" d="M86.8,67.7c-1.7,6.1-5.3,16.1-7.6,20.2c-3.8,0.9-15.3,3.7-25,3.7c-33.6,0-48.6-22.2-48.6-42.4
		c0-26.8,21.7-44.4,51.9-44.4c11.2,0,20.6,3,24.2,3.7c1,7.2,2,12.7,2.8,20l-3.9,0.9C77,15.1,68.3,9.6,54.1,9.6
		C31.9,9.6,20,27.5,20,46.5c0,24.1,14.7,40.1,35.2,40.1c13.5,0,20.9-7.2,27.8-20.4L86.8,67.7z"/>
	<path class="st0" d="M104.3,91c-4.3,0-7.5-3-7.5-7.8c0-4.3,3.2-7.6,7.7-7.6s7.6,3.3,7.6,7.6c0,4.9-3.1,7.8-7.6,7.8H104.3z"/>
	<path class="st0" d="M169,45c13.3,1.7,23.5,7.3,23.5,20.1c0,8.5-4.7,15.2-12.4,19.3c-6.7,3.6-15.6,5.1-26,5.1h-30v-3.7
		c11.2-0.8,12-1.7,12-12.4V22.9c0-10.9-0.6-11.7-10.9-12.4V6.7h34.5c9.9,0,15.6,1.5,20,4.4c4.5,3.1,7.3,8.6,7.3,14.6
		c0,12.1-10.5,17.1-18.1,18.9V45z M154,43.4c14.1,0,20-5.5,20-16c0-9.1-5.1-16.4-17-16.4c-3.1,0-6.1,0.7-7.2,1.6
		c-1.1,0.8-1.5,2.3-1.5,6.2v24.7H154z M148.3,73.2c0,9.5,2.5,11.9,10.7,11.9c10.2-0.2,19.4-5.4,19.4-18.6c0-12.8-8.9-18.6-24.7-18.6
		h-5.4V73.2z"/>
</g>
</svg>
